<svg width="46" height="41" viewBox="0 0 46 41" fill="none" xmlns="http://www.w3.org/2000/svg">
<path fill-rule="evenodd" clip-rule="evenodd" d="M1.35865 5.54689C3.46674 5.24141 6.13352 6.45324 9.28327 9.52835C12.3338 12.5066 15.3249 16.74 17.9863 21.1722C19.558 23.7896 20.9896 26.4338 22.2264 28.8602C21.8789 28.9933 21.5289 29.1365 21.176 29.2895C20.4038 28.9172 19.6408 28.6065 18.8801 28.3596C14.9682 27.0899 11.3938 27.582 7.44196 29.2982L9.43365 33.8844C12.5917 32.5129 14.8817 32.3186 17.3365 33.1154C19.999 33.9796 23.1055 36.0842 27.646 40.0299L31.6029 37.2042L29.2858 38.1428C31.6029 37.2042 31.6027 37.2036 31.6024 37.203L31.6016 37.201L31.599 37.1944L31.5896 37.1713L31.5545 37.0859C31.5241 37.0118 31.4794 36.9037 31.421 36.764C31.3043 36.4847 31.1328 36.0787 30.9105 35.5647C30.5947 34.8344 30.1762 33.8852 29.6666 32.7706C30.1266 32.8491 30.5855 32.9645 31.0504 33.1154C33.7129 33.9796 36.8194 36.0842 41.3599 40.0299L45.3168 37.2042L42.9997 38.1428C45.3168 37.2042 45.3166 37.2036 45.3163 37.203L45.3155 37.201L45.3128 37.1944L45.3034 37.1713L45.2684 37.0859C45.2379 37.0118 45.1932 36.9037 45.1349 36.764C45.0182 36.4847 44.8466 36.0787 44.6244 35.5647C44.18 34.537 43.5322 33.0759 42.7134 31.3304C41.0787 27.8457 38.7498 23.1996 35.9868 18.5982C33.2389 14.022 29.9897 9.36742 26.49 5.95068C23.0896 2.63079 18.8962 -0.0594158 14.3555 0.59857L15.0725 5.54689C17.1806 5.24141 19.8474 6.45324 22.9971 9.52835C26.0477 12.5066 29.0388 16.74 31.7002 21.1722C33.5704 24.2867 35.2422 27.4391 36.6236 30.2176C35.2499 29.4126 33.9182 28.7894 32.594 28.3596C30.7569 27.7633 28.9942 27.5556 27.2319 27.6807C25.835 24.8865 24.1546 21.732 22.2729 18.5982C19.5251 14.022 16.2758 9.36742 12.7762 5.95068C9.37569 2.63079 5.18233 -0.0594158 0.641598 0.59857L1.35865 5.54689Z" fill="white" fill-opacity="0.4"/>
</svg>
