<svg width="31" height="50" viewBox="0 0 31 50" fill="none" xmlns="http://www.w3.org/2000/svg">
<path fill-rule="evenodd" clip-rule="evenodd" d="M20.0005 2.23468C17.9679 3.58241 17.9681 3.58263 17.9683 3.58286L17.9688 3.58341L17.9699 3.58483L17.9733 3.58887L17.9841 3.60176L18.0214 3.64625C18.0532 3.684 18.0987 3.73773 18.1568 3.80578C18.2731 3.94183 18.4402 4.1355 18.6504 4.37362C19.0698 4.84895 19.6646 5.50606 20.3704 6.23805C21.5605 7.47232 23.1635 9.02226 24.8264 10.259C24.7098 10.8423 24.4165 11.7001 23.9163 12.83C22.8562 15.225 21.1066 18.3208 19.1749 21.5618C18.2748 23.072 17.2972 24.6753 16.3503 26.2281C15.3474 27.873 14.3789 29.4613 13.5735 30.8225C12.7626 32.1931 12.043 33.455 11.5022 34.5109C11.0085 35.4749 10.5172 36.5368 10.3831 37.3978C10.104 39.1892 10.8949 40.8046 11.801 42.0084C12.7119 43.2184 13.9232 44.267 15.0248 45.0903C16.1456 45.9279 17.2689 46.6177 18.1001 47.0936C18.5192 47.3335 18.8725 47.5239 19.1254 47.6564C19.2519 47.7228 19.3539 47.7749 19.4268 47.8117C19.4633 47.8301 19.4925 47.8448 19.5141 47.8554L19.5406 47.8685L19.5493 47.8728L19.5526 47.8744L19.5539 47.8751C19.5545 47.8754 19.5551 47.8757 20.6419 45.7902C21.7287 43.7048 21.7292 43.705 21.7297 43.7052L21.7223 43.7015L21.6715 43.6761C21.6235 43.6519 21.5483 43.6134 21.4498 43.5618C21.2525 43.4584 20.9642 43.3033 20.6171 43.1045C19.9159 42.7031 19.0083 42.143 18.1356 41.4908C17.2438 40.8243 16.4991 40.1431 16.027 39.516C15.5502 38.8825 15.5312 38.5532 15.5512 38.4249C15.5512 38.4251 15.5513 38.4248 15.5515 38.4238L15.5515 38.4236C15.555 38.409 15.5876 38.2702 15.7136 37.9627C15.8385 37.6579 16.0199 37.271 16.2605 36.8011C16.7418 35.8614 17.4092 34.6874 18.2083 33.3369C19.0518 31.9112 19.9668 30.412 20.9276 28.8376L20.9278 28.8372C21.8513 27.324 22.8172 25.7414 23.8027 24.0879C25.7356 20.8449 27.6037 17.5563 28.7765 14.9067C29.3548 13.6003 29.8264 12.3137 30.0114 11.1994C30.103 10.6476 30.1514 9.98832 30.0126 9.31878C29.869 8.62633 29.4709 7.70889 28.4847 7.04715C27.0709 6.09849 25.4767 4.60104 24.1671 3.24275C23.5294 2.58139 22.9901 1.98564 22.6113 1.55644C22.4223 1.3423 22.2744 1.17079 22.1752 1.05473C22.1257 0.99673 22.0884 0.952666 22.0644 0.924145L22.0384 0.893254L22.0332 0.886949L22.0329 0.886594C22.033 0.886761 22.0332 0.886943 20.0005 2.23468ZM9.84234 3.4992C7.80973 4.84694 7.80991 4.84715 7.8101 4.84739L7.81056 4.84794L7.81174 4.84935L7.81511 4.8534L7.82588 4.86629L7.86323 4.91077C7.89503 4.94853 7.94049 5.00225 7.99863 5.07031C8.11485 5.20636 8.28202 5.40003 8.49215 5.63815C8.91163 6.11348 9.50644 6.77059 10.2122 7.50258C11.4023 8.73684 13.0053 10.2868 14.6682 11.5235C14.5516 12.1069 14.2583 12.9646 13.7581 14.0946C12.698 16.4895 10.9484 19.5854 9.0167 22.8263C8.11658 24.3365 7.13899 25.9398 6.19213 27.4926C5.18917 29.1375 4.2207 30.7258 3.41533 32.087C2.60444 33.4576 1.88475 34.7196 1.34401 35.7754C0.850282 36.7395 0.359015 37.8014 0.224888 38.6624C-0.0541798 40.4538 0.736692 42.0691 1.64284 43.2729C2.55369 44.483 3.76504 45.5315 4.86665 46.3548C5.9874 47.1924 7.11066 47.8822 7.94189 48.3581C8.36101 48.5981 8.71434 48.7884 8.96715 48.9209C9.09374 48.9873 9.19565 49.0394 9.26858 49.0762C9.30506 49.0947 9.33435 49.1093 9.35589 49.12L9.38236 49.1331L9.39114 49.1374L9.39438 49.139L9.39572 49.1396C9.39631 49.1399 9.39687 49.1402 10.4837 47.0547C11.5705 44.9693 11.571 44.9695 11.5715 44.9697L11.564 44.9661L11.5133 44.9406C11.4653 44.9164 11.3901 44.878 11.2916 44.8264C11.0943 44.723 10.806 44.5678 10.4589 44.3691C9.75767 43.9676 8.8501 43.4075 7.97741 42.7554C7.08557 42.0888 6.34085 41.4077 5.86876 40.7805C5.39197 40.1471 5.37303 39.8177 5.39302 39.6894C5.39297 39.6897 5.39307 39.6893 5.39333 39.6882C5.39677 39.6735 5.42939 39.5347 5.55535 39.2273C5.68027 38.9224 5.86168 38.5356 6.10234 38.0657C6.58361 37.1259 7.25105 35.952 8.05012 34.6014C8.89361 33.1757 9.80857 31.6765 10.7694 30.1021L10.7696 30.1018C11.6931 28.5886 12.659 27.0059 13.6445 25.3524C15.5774 22.1094 17.4455 18.8208 18.6183 16.1713C19.1966 14.8648 19.6682 13.5782 19.8532 12.4639C19.9448 11.9121 19.9932 11.2528 19.8544 10.5833C19.7108 9.89085 19.3127 8.97342 18.3265 8.31168C16.9127 7.36302 15.3185 5.86557 14.0089 4.50728C13.3712 3.84591 12.8319 3.25016 12.4531 2.82097C12.2641 2.60682 12.1162 2.43532 12.017 2.31926C11.9675 2.26126 11.9302 2.21719 11.9062 2.18867L11.8802 2.15778L11.875 2.15147L11.8747 2.15112C11.8748 2.15129 11.875 2.15147 9.84234 3.4992Z" fill="white" fill-opacity="0.4"/>
</svg>
