<svg width="41" height="41" viewBox="0 0 41 41" fill="none" xmlns="http://www.w3.org/2000/svg">
<path d="M29.6875 0C31.7595 0 33.7466 0.8231 35.2118 2.28823C36.6769 3.75336 37.5 5.7405 37.5 7.8125V13.3031C34.4238 10.7584 30.5548 9.36892 26.5625 9.375H34.375V7.8125C34.375 6.5693 33.8811 5.37701 33.0021 4.49794C32.123 3.61886 30.9307 3.125 29.6875 3.125H7.8125C6.5693 3.125 5.37701 3.61886 4.49794 4.49794C3.61886 5.37701 3.125 6.5693 3.125 7.8125V9.375H26.5625C22.8844 9.375 19.475 10.5312 16.6781 12.5H3.125V29.6875C3.125 30.9307 3.61886 32.123 4.49794 33.0021C5.37701 33.8811 6.5693 34.375 7.8125 34.375H11.25C11.8219 35.4938 12.5125 36.5406 13.3031 37.5H7.8125C5.7405 37.5 3.75336 36.6769 2.28823 35.2118C0.8231 33.7466 0 31.7595 0 29.6875V7.8125C0 5.7405 0.8231 3.75336 2.28823 2.28823C3.75336 0.8231 5.7405 0 7.8125 0H29.6875ZM40.625 26.5625C40.625 28.4092 40.2613 30.2378 39.5546 31.944C38.8479 33.6501 37.812 35.2004 36.5062 36.5062C35.2004 37.812 33.6501 38.8479 31.944 39.5546C30.2378 40.2613 28.4092 40.625 26.5625 40.625C24.7158 40.625 22.8872 40.2613 21.181 39.5546C19.4749 38.8479 17.9246 37.812 16.6188 36.5062C15.313 35.2004 14.2772 33.6501 13.5704 31.944C12.8637 30.2378 12.5 28.4092 12.5 26.5625C12.5 22.8329 13.9816 19.256 16.6188 16.6188C19.256 13.9816 22.8329 12.5 26.5625 12.5C30.2921 12.5 33.869 13.9816 36.5062 16.6188C39.1434 19.256 40.625 22.8329 40.625 26.5625ZM26.5625 32.4375C26.0445 32.4375 25.5477 32.6433 25.1814 33.0096C24.8151 33.3758 24.6094 33.8726 24.6094 34.3906C24.6094 34.9086 24.8151 35.4054 25.1814 35.7717C25.5477 36.138 26.0445 36.3438 26.5625 36.3438C27.0805 36.3438 27.5773 36.138 27.9436 35.7717C28.3099 35.4054 28.5156 34.9086 28.5156 34.3906C28.5156 33.8726 28.3099 33.3758 27.9436 33.0096C27.5773 32.6433 27.0805 32.4375 26.5625 32.4375ZM26.5625 17.1969C23.2875 17.1969 20.7375 19.7531 20.7719 23.3063C20.776 23.7207 20.9446 24.1164 21.2406 24.4065C21.5365 24.6966 21.9356 24.8573 22.35 24.8531C22.7644 24.849 23.1602 24.6804 23.4503 24.3844C23.7404 24.0885 23.901 23.6894 23.8969 23.275C23.8781 21.4656 25.0219 20.3219 26.5625 20.3219C28.0375 20.3219 29.2281 21.5469 29.2281 23.2906C29.2281 23.9219 29.0094 24.275 28.1031 24.9906L27.2375 25.6625C25.6562 26.925 25 27.9031 25 29.6875C24.9993 30.078 25.1448 30.4545 25.4078 30.7431C25.6709 31.0316 26.0325 31.2112 26.4213 31.2465C26.8102 31.2818 27.1982 31.1702 27.5088 30.9337C27.8195 30.6972 28.0304 30.353 28.1 29.9688L28.1344 29.4813C28.1875 29.0187 28.4469 28.6875 29.2156 28.0812L30.0813 27.4094C31.6844 26.1281 32.3531 25.1219 32.3531 23.2906C32.3531 19.8406 29.7844 17.1969 26.5625 17.1969Z" fill="white"/>
</svg>
