<svg width="46" height="36" viewBox="0 0 46 36" fill="none" xmlns="http://www.w3.org/2000/svg">
<path fill-rule="evenodd" clip-rule="evenodd" d="M3.5 0.125H42.5C43.3617 0.12586 44.1878 0.468547 44.7971 1.07785C45.4065 1.68716 45.7491 2.51331 45.75 3.375V32.625C45.7491 33.4867 45.4065 34.3128 44.7971 34.9221C44.1878 35.5315 43.3617 35.8741 42.5 35.875H3.5C2.63831 35.8741 1.81216 35.5315 1.20285 34.9221C0.593546 34.3128 0.25086 33.4867 0.25 32.625V3.375C0.25086 2.51331 0.593546 1.68716 1.20285 1.07785C1.81216 0.468547 2.63831 0.12586 3.5 0.125ZM21.375 3.375H3.5V32.625H21.375V3.375ZM24.625 3.375V32.625H42.5V3.375H24.625ZM39.25 8.25H27.875V11.5H39.25V8.25ZM39.25 16.375H27.875V19.625H39.25V16.375ZM39.25 24.5H27.875V27.75H39.25V24.5ZM18.125 8.25H6.75V11.5H18.125V8.25ZM18.125 16.375H6.75V19.625H18.125V16.375ZM18.125 24.5H6.75V27.75H18.125V24.5Z" fill="white"/>
</svg>
