<svg width="46" height="41" viewBox="0 0 46 41" fill="none" xmlns="http://www.w3.org/2000/svg">
<path d="M9.49009 8.2C9.13053 8.2 8.7857 8.34399 8.53145 8.60029C8.2772 8.85659 8.13436 9.2042 8.13436 9.56667C8.13436 9.92913 8.2772 10.2767 8.53145 10.533C8.7857 10.7893 9.13053 10.9333 9.49009 10.9333H20.3359C20.6955 10.9333 21.0403 10.7893 21.2946 10.533C21.5488 10.2767 21.6916 9.92913 21.6916 9.56667C21.6916 9.2042 21.5488 8.85659 21.2946 8.60029C21.0403 8.34399 20.6955 8.2 20.3359 8.2H9.49009ZM9.49009 15.0333C9.13053 15.0333 8.7857 15.1773 8.53145 15.4336C8.2772 15.6899 8.13436 16.0375 8.13436 16.4C8.13436 16.7625 8.2772 17.1101 8.53145 17.3664C8.7857 17.6227 9.13053 17.7667 9.49009 17.7667H25.7588C26.1184 17.7667 26.4632 17.6227 26.7175 17.3664C26.9717 17.1101 27.1145 16.7625 27.1145 16.4C27.1145 16.0375 26.9717 15.6899 26.7175 15.4336C26.4632 15.1773 26.1184 15.0333 25.7588 15.0333H9.49009ZM8.13436 23.2333C8.13436 22.8709 8.2772 22.5233 8.53145 22.267C8.7857 22.0107 9.13053 21.8667 9.49009 21.8667H21.6916C22.0512 21.8667 22.396 22.0107 22.6503 22.267C22.9045 22.5233 23.0474 22.8709 23.0474 23.2333C23.0474 23.5958 22.9045 23.9434 22.6503 24.1997C22.396 24.456 22.0512 24.6 21.6916 24.6H9.49009C9.13053 24.6 8.7857 24.456 8.53145 24.1997C8.2772 23.9434 8.13436 23.5958 8.13436 23.2333ZM6.77864 0C4.98083 0 3.25666 0.719938 1.98542 2.00144C0.714176 3.28294 0 5.02102 0 6.83333V25.9667C0 27.779 0.714176 29.5171 1.98542 30.7986C3.25666 32.0801 4.98083 32.8 6.77864 32.8H22.8196C22.4392 31.9219 22.152 31.0057 21.9628 30.0667H6.77864C5.69995 30.0667 4.66545 29.6347 3.9027 28.8658C3.13996 28.0969 2.71145 27.0541 2.71145 25.9667V6.83333C2.71145 5.74595 3.13996 4.70309 3.9027 3.9342C4.66545 3.1653 5.69995 2.73333 6.77864 2.73333H36.6046C37.6833 2.73333 38.7178 3.1653 39.4806 3.9342C40.2433 4.70309 40.6718 5.74595 40.6718 6.83333V15.7549C42.315 17.2364 43.3562 19.3821 43.3833 21.7737V6.83333C43.3833 5.02102 42.6691 3.28294 41.3979 2.00144C40.1266 0.719938 38.4024 0 36.6046 0H6.77864ZM29.826 21.8667C29.826 20.4168 30.3973 19.0264 31.4143 18.0012C32.4313 16.976 33.8107 16.4 35.2489 16.4C36.6872 16.4 38.0665 16.976 39.0835 18.0012C40.1005 19.0264 40.6718 20.4168 40.6718 21.8667V27.3333C40.6718 28.7832 40.1005 30.1737 39.0835 31.1988C38.0665 32.224 36.6872 32.8 35.2489 32.8C33.8107 32.8 32.4313 32.224 31.4143 31.1988C30.3973 30.1737 29.826 28.7832 29.826 27.3333V21.8667ZM27.1959 28.5087C27.1738 28.3286 27.1163 28.1547 27.0268 27.9973C26.9374 27.8398 26.8177 27.7019 26.6748 27.5915C26.5318 27.4812 26.3686 27.4007 26.1944 27.3546C26.0203 27.3086 25.8388 27.298 25.6606 27.3234C25.4824 27.3488 25.3109 27.4097 25.1563 27.5026C25.0017 27.5955 24.8669 27.7185 24.76 27.8645C24.653 28.0105 24.576 28.1764 24.5333 28.3527C24.4907 28.529 24.4833 28.7121 24.5115 28.8913C24.8503 31.2622 25.9516 33.4554 27.6464 35.1342C29.3412 36.8131 31.5358 37.8847 33.8932 38.1847V39.6333C33.8932 39.9958 34.036 40.3434 34.2903 40.5997C34.5445 40.856 34.8893 41 35.2489 41C35.6085 41 35.9533 40.856 36.2076 40.5997C36.4618 40.3434 36.6046 39.9958 36.6046 39.6333V38.1819C38.9613 37.8823 41.1553 36.8114 42.85 35.1336C44.5447 33.4559 45.6464 31.2639 45.9863 28.8941C46.0115 28.7164 46.0019 28.5354 45.9578 28.3615C45.9137 28.1876 45.836 28.0242 45.7293 27.8805C45.6225 27.7369 45.4887 27.6158 45.3356 27.5243C45.1824 27.4327 45.0129 27.3725 44.8366 27.347C44.6604 27.3215 44.4808 27.3313 44.3083 27.3757C44.1358 27.4202 43.9737 27.4984 43.8312 27.6061C43.6887 27.7137 43.5686 27.8485 43.4778 28.0029C43.387 28.1573 43.3272 28.3283 43.3019 28.5059C43.0256 30.4606 42.059 32.2491 40.5797 33.5429C39.1003 34.8368 37.2075 35.5492 35.2489 35.5492C33.2903 35.5492 31.3975 34.8368 29.9182 33.5429C28.4388 32.2491 27.4722 30.4606 27.1959 28.5059V28.5087Z" fill="white"/>
</svg>
