<svg width="38" height="32" viewBox="0 0 38 32" fill="none" xmlns="http://www.w3.org/2000/svg">
<path fill-rule="evenodd" clip-rule="evenodd" d="M0 27.55C0 27.1654 0.153646 26.7966 0.427136 26.5247C0.700627 26.2528 1.07156 26.1 1.45833 26.1H16.3818C16.3818 25.6 16.3818 26.5247 16.3818 26.5247C16.3818 27 16.3818 27.6154 16.3818 28C16.3818 28.3846 16.3818 29.6433 16.3818 29H1.45833C1.07156 29 0.700627 28.8472 0.427136 28.5753C0.153646 28.3034 0 27.9346 0 27.55ZM0 18.85C0 18.4654 0.153646 18.0966 0.427136 17.8247C0.700627 17.5528 1.07156 17.4 1.45833 17.4L17.5 17.5C17.8868 17.5 17.7637 17.5 17.3818 18C17 18.5 16.8818 18.5 16.8818 19C16.8818 19.5 16.8818 19.5 16.8818 20L1.45833 20.3C1.07156 20.3 0.700627 20.1472 0.427136 19.8753C0.153646 19.6034 0 19.2346 0 18.85ZM0 10.15C0 9.76544 0.153646 9.39662 0.427136 9.1247C0.700627 8.85277 1.07156 8.7 1.45833 8.7H21.875C22.2618 8.7 22.6327 8.85277 22.9062 9.1247C23.1797 9.39662 23.3333 9.76544 23.3333 10.15C23.3333 10.5346 23.1797 10.9034 22.9062 11.1753C22.6327 11.4472 22.2618 11.6 21.875 11.6H1.45833C1.07156 11.6 0.700627 11.4472 0.427136 11.1753C0.153646 10.9034 0 10.5346 0 10.15ZM0 1.45C0 1.06544 0.153646 0.696623 0.427136 0.424695C0.700627 0.152768 1.07156 0 1.45833 0H33.5417C33.9284 0 34.2994 0.152768 34.5729 0.424695C34.8464 0.696623 35 1.06544 35 1.45C35 1.83456 34.8464 2.20338 34.5729 2.4753C34.2994 2.74723 33.9284 2.9 33.5417 2.9H1.45833C1.07156 2.9 0.700627 2.74723 0.427136 2.4753C0.153646 2.20338 0 1.83456 0 1.45Z" fill="white"/>
<path d="M19.1318 22C19.1318 19.6794 20.0537 17.4538 21.6947 15.8128C23.3356 14.1719 25.5612 13.25 27.8818 13.25C30.2025 13.25 32.4281 14.1719 34.069 15.8128C35.71 17.4538 36.6318 19.6794 36.6318 22V23.25H32.2568C32.0911 23.25 31.9321 23.3158 31.8149 23.4331C31.6977 23.5503 31.6318 23.7092 31.6318 23.875V31.375C31.6318 31.5408 31.6977 31.6997 31.8149 31.8169C31.9321 31.9342 32.0911 32 32.2568 32H35.3818C36.0449 32 36.6808 31.7366 37.1496 31.2678C37.6184 30.7989 37.8818 30.163 37.8818 29.5V22C37.8818 19.3478 36.8283 16.8043 34.9529 14.9289C33.0775 13.0536 30.534 12 27.8818 12C25.2297 12 22.6861 13.0536 20.8108 14.9289C18.9354 16.8043 17.8818 19.3478 17.8818 22V29.5C17.8818 30.163 18.1452 30.7989 18.6141 31.2678C19.0829 31.7366 19.7188 32 20.3818 32H23.5068C23.6726 32 23.8316 31.9342 23.9488 31.8169C24.066 31.6997 24.1318 31.5408 24.1318 31.375V23.875C24.1318 23.7092 24.066 23.5503 23.9488 23.4331C23.8316 23.3158 23.6726 23.25 23.5068 23.25H19.1318V22Z" fill="white"/>
</svg>
