<svg width="49" height="40" viewBox="0 0 49 40" fill="none" xmlns="http://www.w3.org/2000/svg">
<path d="M44.175 0C44.5529 0 44.9154 0.150134 45.1826 0.417373C45.4499 0.684612 45.6 1.04707 45.6 1.425C45.6 1.80293 45.4499 2.16539 45.1826 2.43263C44.9154 2.69987 44.5529 2.85 44.175 2.85H1.425C1.04707 2.85 0.684612 2.69987 0.417373 2.43263C0.150134 2.16539 0 1.80293 0 1.425C0 1.04707 0.150134 0.684612 0.417373 0.417373C0.684612 0.150134 1.04707 0 1.425 0H44.175ZM44.175 8.55C44.5529 8.55 44.9154 8.70013 45.1826 8.96737C45.4499 9.23461 45.6 9.59707 45.6 9.975C45.6 10.3529 45.4499 10.7154 45.1826 10.9826C44.9154 11.2499 44.5529 11.4 44.175 11.4H1.425C1.04707 11.4 0.684612 11.2499 0.417373 10.9826C0.150134 10.7154 0 10.3529 0 9.975C0 9.59707 0.150134 9.23461 0.417373 8.96737C0.684612 8.70013 1.04707 8.55 1.425 8.55H44.175ZM23.5325 17.1C22.8066 17.9791 22.1787 18.9348 21.66 19.95H1.425C1.04707 19.95 0.684612 19.7999 0.417373 19.5326C0.150134 19.2654 0 18.9029 0 18.525C0 18.1471 0.150134 17.7846 0.417373 17.5174C0.684612 17.2501 1.04707 17.1 1.425 17.1H23.5325ZM19.95 27.075C19.95 27.5538 19.9728 28.0298 20.0127 28.5H1.425C1.04707 28.5 0.684612 28.3499 0.417373 28.0826C0.150134 27.8154 0 27.4529 0 27.075C0 26.6971 0.150134 26.3346 0.417373 26.0674C0.684612 25.8001 1.04707 25.65 1.425 25.65H20.0127C19.9705 26.1238 19.9495 26.5993 19.95 27.075ZM35.625 39.9C39.0264 39.9 42.2885 38.5488 44.6936 36.1436C47.0988 33.7385 48.45 30.4764 48.45 27.075C48.45 23.6736 47.0988 20.4115 44.6936 18.0064C42.2885 15.6012 39.0264 14.25 35.625 14.25C32.2236 14.25 28.9615 15.6012 26.5564 18.0064C24.1512 20.4115 22.8 23.6736 22.8 27.075C22.8 30.4764 24.1512 33.7385 26.5564 36.1436C28.9615 38.5488 32.2236 39.9 35.625 39.9ZM38.8911 32.3589L35.625 29.0899L32.3589 32.3589C32.0913 32.6265 31.7284 32.7768 31.35 32.7768C30.9716 32.7768 30.6087 32.6265 30.3411 32.3589C30.0735 32.0913 29.9232 31.7284 29.9232 31.35C29.9232 30.9716 30.0735 30.6087 30.3411 30.3411L33.6101 27.075L30.3411 23.8089C30.0735 23.5413 29.9232 23.1784 29.9232 22.8C29.9232 22.4216 30.0735 22.0587 30.3411 21.7911C30.6087 21.5235 30.9716 21.3732 31.35 21.3732C31.7284 21.3732 32.0913 21.5235 32.3589 21.7911L35.625 25.06L38.8911 21.7911C39.0236 21.6586 39.1809 21.5535 39.354 21.4818C39.5271 21.4101 39.7126 21.3732 39.9 21.3732C40.0874 21.3732 40.2729 21.4101 40.446 21.4818C40.6191 21.5535 40.7764 21.6586 40.9089 21.7911C41.0414 21.9236 41.1465 22.0809 41.2182 22.254C41.2899 22.4271 41.3268 22.6126 41.3268 22.8C41.3268 22.9874 41.2899 23.1729 41.2182 23.346C41.1465 23.5191 41.0414 23.6764 40.9089 23.8089L37.6399 27.075L40.9089 30.3411C41.0414 30.4736 41.1465 30.6309 41.2182 30.804C41.2899 30.9771 41.3268 31.1626 41.3268 31.35C41.3268 31.5374 41.2899 31.7229 41.2182 31.896C41.1465 32.0691 41.0414 32.2264 40.9089 32.3589C40.7764 32.4914 40.6191 32.5965 40.446 32.6682C40.2729 32.7399 40.0874 32.7768 39.9 32.7768C39.7126 32.7768 39.5271 32.7399 39.354 32.6682C39.1809 32.5965 39.0236 32.4914 38.8911 32.3589Z" fill="white"/>
</svg>
