<svg width="27" height="35" viewBox="0 0 27 35" fill="none" xmlns="http://www.w3.org/2000/svg">
<path fill-rule="evenodd" clip-rule="evenodd" d="M2.70801 34.944C1.43911 33.8241 0.528215 32.3079 0.168945 30.5891C0.234925 30.591 0.301819 30.592 0.369626 30.592H5.61762C8.13496 30.592 9.39363 29.248 9.39363 26.56V10.112C9.39363 6.82667 10.1616 4.33067 11.6976 2.624C13.2763 0.874667 15.751 0 19.1216 0C20.871 0 22.4496 0.362666 23.8576 1.088C25.1608 1.71985 26.2081 2.60756 26.9996 3.75112V34.944H24.1776V9.728C24.1776 8.23467 23.7723 7.06133 22.9616 6.208C22.151 5.312 21.0203 4.864 19.5696 4.864C16.4976 4.864 14.9616 6.54933 14.9616 9.92V26.432C14.9616 32.1067 11.9536 34.944 5.93763 34.944H2.70801Z" fill="#856BD0" fill-opacity="0.74"/>
</svg>
